<svg xmlns="http://www.w3.org/2000/svg" viewBox="0 0 1191.16 256.65"><defs><style>.cls-1{fill:#597382;}.cls-1,.cls-5,.cls-6,.cls-7{stroke:#112a40;stroke-linejoin:round;}.cls-1,.cls-2,.cls-3,.cls-4,.cls-5,.cls-6,.cls-7{stroke-linecap:round;stroke-width:4px;}.cls-2{fill:#04d0d9;}.cls-2,.cls-3,.cls-4{stroke:#353e4a;stroke-miterlimit:10;}.cls-3{fill:#9acb34;}.cls-4{fill:#fbf8ef;}.cls-5,.cls-6,.cls-7,.cls-8{fill:none;}.cls-6{stroke-dasharray:3.06 6.12;}.cls-7{stroke-dasharray:30.58 6.12 3.06 6.12;}</style></defs><g id="Слой_2" data-name="Слой 2"><g id="Слой_1-2" data-name="Слой 1"><rect class="cls-1" x="36.06" y="81.96" width="855.23" height="93.42"/><polygon class="cls-2" points="112.45 182.09 189.1 179.38 189.1 77.97 92.56 74.55 112.45 182.09"/><polygon class="cls-2" points="439.39 182.09 516.03 179.38 516.03 77.97 419.5 74.55 439.39 182.09"/><polygon class="cls-3" points="275.92 74.55 352.56 77.26 352.56 178.68 256.03 182.09 275.92 74.55"/><polygon class="cls-3" points="602.75 74.55 679.4 77.26 679.4 178.68 582.86 182.09 602.75 74.55"/><polygon class="cls-4" points="745.44 182.09 841.98 178.68 841.98 77.26 745.44 74.55 745.44 182.09"/><path class="cls-1" d="M1130.88,223.84s-11.29,1.92-15.69,4.51-6.09,6.49-15.48,6.49-16.16-11.62-23.71-13.94c-4.53-1.39-10.15,2.94-10.15,2.94V40.61s0-11.1,12.44-11.1c13.9,0,17.16,11.1,27.1,11.1s11.41-8,18.45-8,7,8,7,8Z"/><path class="cls-4" d="M1153.42,182.09a117.23,117.23,0,0,0-110.12,0l10.34-97.83h88.76Z"/><line class="cls-5" x1="1098.36" y1="18.93" x2="1098.36" y2="33.93"/><line class="cls-6" x1="1098.36" y1="40.05" x2="1098.36" y2="46.16"/><line class="cls-7" x1="1098.36" y1="49.22" x2="1098.36" y2="229.65"/><line class="cls-5" x1="1098.36" y1="232.71" x2="1098.36" y2="247.71"/><rect class="cls-8" width="1191.16" height="256.65"/></g></g></svg>