<svg xmlns="http://www.w3.org/2000/svg" viewBox="0 0 539.27 172.03"><defs><style>.cls-1{fill:#f2f2f2;}.cls-2,.cls-4{fill:none;stroke-miterlimit:10;}.cls-2{stroke:#0b1c26;stroke-width:4px;}.cls-3{fill:#3e4f59;}.cls-4{stroke:#f20505;stroke-linecap:square;stroke-width:7px;}</style></defs><g id="Слой_2" data-name="Слой 2"><g id="Слой_1-2" data-name="Слой 1"><g id="плоский"><rect class="cls-1" x="240.93" y="141.03" width="49" height="31"/><line class="cls-2" x1="240.93" y1="172.03" x2="240.93" y2="135.03"/><line class="cls-2" x1="289.93" y1="172.03" x2="289.93" y2="135.03"/><rect class="cls-3" x="233.93" y="12.03" width="63" height="129"/><line class="cls-4" x1="233.93" y1="5.74" x2="296.93" y2="5.74"/></g><rect class="cls-1" x="396.54" y="141.03" width="49" height="31"/><line class="cls-2" x1="396.54" y1="172.03" x2="396.54" y2="135.03"/><line class="cls-2" x1="445.54" y1="172.03" x2="445.54" y2="135.03"/><polygon class="cls-3" points="432.87 12.03 421.04 12.03 409.22 12.03 389.54 35.7 389.54 141.03 421.04 141.03 452.54 141.03 452.54 35.7 432.87 12.03"/><polyline class="cls-4" points="386.02 29.96 406.38 5.17 435.7 5.17 456.06 29.96"/><rect class="cls-1" x="479.77" y="141.03" width="49" height="31"/><line class="cls-2" x1="479.77" y1="172.03" x2="479.77" y2="135.03"/><line class="cls-2" x1="528.77" y1="172.03" x2="528.77" y2="135.03"/><rect class="cls-3" x="472.77" y="12.03" width="63" height="129"/><line class="cls-4" x1="472.77" y1="5.74" x2="535.77" y2="5.74"/><g id="косой"><rect class="cls-1" x="93.83" y="129.29" width="49" height="42.74"/><line class="cls-2" x1="93.83" y1="172.03" x2="93.83" y2="127.64"/><line class="cls-2" x1="142.83" y1="172.03" x2="142.83" y2="130.16"/><polygon class="cls-3" points="149.83 133.54 86.83 133.54 86.83 45.09 149.83 12.03 149.83 133.54"/><line class="cls-4" x1="86.83" y1="38.41" x2="149.83" y2="4.74"/></g><g id="косой-2" data-name="косой"><rect class="cls-1" x="11.74" y="129.29" width="49" height="42.74" transform="translate(72.47 301.31) rotate(-180)"/><line class="cls-2" x1="60.74" y1="172.03" x2="60.74" y2="127.64"/><line class="cls-2" x1="11.74" y1="172.03" x2="11.74" y2="130.16"/><polygon class="cls-3" points="4.74 133.54 67.74 133.54 67.74 45.09 4.74 12.03 4.74 133.54"/><line class="cls-4" x1="67.74" y1="38.41" x2="4.74" y2="4.74"/></g></g></g></svg>