<svg xmlns="http://www.w3.org/2000/svg" viewBox="0 0 563.8 173.27"><defs><style>.cls-1{fill:#f2f2f2;}.cls-2,.cls-4{fill:none;stroke-miterlimit:10;}.cls-2{stroke:#0b1c26;stroke-width:4px;}.cls-3{fill:#3e4f59;}.cls-4{stroke:#f20505;stroke-linecap:square;stroke-width:7px;}</style></defs><g id="Слой_2" data-name="Слой 2"><g id="Слой_1-2" data-name="Слой 1"><rect class="cls-1" x="253.34" y="142.27" width="49" height="31"/><line class="cls-2" x1="253.34" y1="173.27" x2="253.34" y2="136.27"/><line class="cls-2" x1="302.34" y1="173.27" x2="302.34" y2="136.27"/><polygon class="cls-3" points="289.66 13.27 277.84 13.27 266.01 13.27 246.34 36.95 246.34 142.27 277.84 142.27 309.34 142.27 309.34 36.95 289.66 13.27"/><polyline class="cls-4" points="242.81 31.21 263.17 6.42 292.5 6.42 312.85 31.21"/><rect class="cls-1" x="95.79" y="142.27" width="49" height="31"/><line class="cls-2" x1="95.79" y1="173.27" x2="95.79" y2="136.27"/><line class="cls-2" x1="144.79" y1="173.27" x2="144.79" y2="136.27"/><rect class="cls-3" x="88.79" y="13.27" width="63" height="129"/><line class="cls-4" x1="88.79" y1="6.98" x2="151.79" y2="6.98"/><rect class="cls-1" x="419.76" y="142.27" width="49" height="31"/><line class="cls-2" x1="419.76" y1="173.27" x2="419.76" y2="136.27"/><line class="cls-2" x1="468.76" y1="173.27" x2="468.76" y2="136.27"/><polygon class="cls-3" points="475.76 142.27 412.76 142.27 412.76 13.27 444.26 13.27 475.76 30.34 475.76 142.27"/><polyline class="cls-4" points="412.76 6.98 446.01 6.98 475.76 23.5"/><rect class="cls-1" x="504.3" y="142.27" width="49" height="31" transform="translate(1057.61 315.55) rotate(-180)"/><line class="cls-2" x1="553.3" y1="173.27" x2="553.3" y2="136.27"/><line class="cls-2" x1="504.3" y1="173.27" x2="504.3" y2="136.27"/><polygon class="cls-3" points="497.3 142.27 560.3 142.27 560.3 13.27 528.8 13.27 497.3 30.34 497.3 142.27"/><polyline class="cls-4" points="560.3 6.98 527.05 6.98 497.3 23.5"/><rect class="cls-1" x="15.27" y="142.27" width="49" height="31"/><line class="cls-2" x1="15.27" y1="173.27" x2="15.27" y2="136.27"/><line class="cls-2" x1="64.27" y1="173.27" x2="64.27" y2="136.27"/><polygon class="cls-3" points="39.77 13.27 8.27 46.14 8.27 142.27 39.77 142.27 71.27 142.27 71.27 46.14 39.77 13.27"/><polyline class="cls-4" points="4.95 40.27 39.77 4.98 74.59 40.27"/></g></g></svg>