<svg xmlns="http://www.w3.org/2000/svg" viewBox="0 0 1199.4 173.27"><defs><style>.cls-1{fill:#f2f2f2;}.cls-2,.cls-4{fill:none;stroke-miterlimit:10;}.cls-2{stroke:#0b1c26;stroke-width:4px;}.cls-3{fill:#3e4f59;}.cls-4{stroke:#f20505;stroke-linecap:square;stroke-width:7px;}</style></defs><g id="Слой_2" data-name="Слой 2"><g id="Слой_1-2" data-name="Слой 1"><g id="плоский"><rect class="cls-1" x="240.93" y="142.27" width="49" height="31"/><line class="cls-2" x1="240.93" y1="173.27" x2="240.93" y2="136.27"/><line class="cls-2" x1="289.93" y1="173.27" x2="289.93" y2="136.27"/><rect class="cls-3" x="233.93" y="13.27" width="63" height="129"/><line class="cls-4" x1="233.93" y1="6.98" x2="296.93" y2="6.98"/></g><rect class="cls-1" x="888.93" y="142.27" width="49" height="31"/><line class="cls-2" x1="888.93" y1="173.27" x2="888.93" y2="136.27"/><line class="cls-2" x1="937.93" y1="173.27" x2="937.93" y2="136.27"/><polygon class="cls-3" points="925.25 13.27 913.43 13.27 901.61 13.27 881.93 36.95 881.93 142.27 913.43 142.27 944.93 142.27 944.93 36.95 925.25 13.27"/><polyline class="cls-4" points="878.41 31.21 898.76 6.42 928.09 6.42 948.45 31.21"/><rect class="cls-1" x="396.54" y="142.27" width="49" height="31"/><line class="cls-2" x1="396.54" y1="173.27" x2="396.54" y2="136.27"/><line class="cls-2" x1="445.54" y1="173.27" x2="445.54" y2="136.27"/><polygon class="cls-3" points="432.87 13.27 421.04 13.27 409.22 13.27 389.54 36.95 389.54 142.27 421.04 142.27 452.54 142.27 452.54 36.95 432.87 13.27"/><polyline class="cls-4" points="386.02 31.21 406.38 6.42 435.7 6.42 456.06 31.21"/><rect class="cls-1" x="479.77" y="142.27" width="49" height="31"/><line class="cls-2" x1="479.77" y1="173.27" x2="479.77" y2="136.27"/><line class="cls-2" x1="528.77" y1="173.27" x2="528.77" y2="136.27"/><rect class="cls-3" x="472.77" y="13.27" width="63" height="129"/><line class="cls-4" x1="472.77" y1="6.98" x2="535.77" y2="6.98"/><rect class="cls-1" x="731.38" y="142.27" width="49" height="31"/><line class="cls-2" x1="731.38" y1="173.27" x2="731.38" y2="136.27"/><line class="cls-2" x1="780.38" y1="173.27" x2="780.38" y2="136.27"/><rect class="cls-3" x="724.38" y="13.27" width="63" height="129"/><line class="cls-4" x1="724.38" y1="6.98" x2="787.38" y2="6.98"/><rect class="cls-1" x="1055.35" y="142.27" width="49" height="31"/><line class="cls-2" x1="1055.35" y1="173.27" x2="1055.35" y2="136.27"/><line class="cls-2" x1="1104.35" y1="173.27" x2="1104.35" y2="136.27"/><polygon class="cls-3" points="1111.35 142.27 1048.35 142.27 1048.35 13.27 1079.85 13.27 1111.35 30.34 1111.35 142.27"/><polyline class="cls-4" points="1048.35 6.98 1081.61 6.98 1111.35 23.5"/><rect class="cls-1" x="1139.9" y="142.27" width="49" height="31" transform="translate(2328.8 315.55) rotate(-180)"/><line class="cls-2" x1="1188.9" y1="173.27" x2="1188.9" y2="136.27"/><line class="cls-2" x1="1139.9" y1="173.27" x2="1139.9" y2="136.27"/><polygon class="cls-3" points="1132.9 142.27 1195.9 142.27 1195.9 13.27 1164.4 13.27 1132.9 30.34 1132.9 142.27"/><polyline class="cls-4" points="1195.9 6.98 1162.64 6.98 1132.9 23.5"/><rect class="cls-1" x="650.87" y="142.27" width="49" height="31"/><line class="cls-2" x1="650.87" y1="173.27" x2="650.87" y2="136.27"/><line class="cls-2" x1="699.87" y1="173.27" x2="699.87" y2="136.27"/><polygon class="cls-3" points="675.37 13.27 643.87 46.14 643.87 142.27 675.37 142.27 706.87 142.27 706.87 46.14 675.37 13.27"/><polyline class="cls-4" points="640.54 40.27 675.37 4.98 710.19 40.27"/><g id="косой"><rect class="cls-1" x="93.83" y="130.53" width="49" height="42.74"/><line class="cls-2" x1="93.83" y1="173.27" x2="93.83" y2="128.89"/><line class="cls-2" x1="142.83" y1="173.27" x2="142.83" y2="131.4"/><polygon class="cls-3" points="149.83 134.79 86.83 134.79 86.83 46.34 149.83 13.27 149.83 134.79"/><line class="cls-4" x1="86.83" y1="39.66" x2="149.83" y2="5.98"/></g><g id="косой-2" data-name="косой"><rect class="cls-1" x="11.74" y="130.53" width="49" height="42.74" transform="translate(72.47 303.8) rotate(-180)"/><line class="cls-2" x1="60.74" y1="173.27" x2="60.74" y2="128.89"/><line class="cls-2" x1="11.74" y1="173.27" x2="11.74" y2="131.4"/><polygon class="cls-3" points="4.74 134.79 67.74 134.79 67.74 46.34 4.74 13.27 4.74 134.79"/><line class="cls-4" x1="67.74" y1="39.66" x2="4.74" y2="5.98"/></g></g></g></svg>